<?xml version="1.0" encoding="UTF-8" standalone="no"?>
<!DOCTYPE svg PUBLIC "-//W3C//DTD SVG 1.1//EN"
 "http://www.w3.org/Graphics/SVG/1.1/DTD/svg11.dtd">
<!-- Generated by graphviz version 2.43.0 (0)
 -->
<!-- Title: G Pages: 1 -->
<svg width="316pt" height="548pt"
 viewBox="0.00 0.00 315.50 548.00" xmlns="http://www.w3.org/2000/svg" xmlns:xlink="http://www.w3.org/1999/xlink">
<g id="graph0" class="graph" transform="scale(1 1) rotate(0) translate(4 544)">
<title>G</title>
<polygon fill="white" stroke="transparent" points="-4,4 -4,-544 311.5,-544 311.5,4 -4,4"/>
<!-- 0 -->
<g id="node1" class="node">
<title>0</title>
<path fill="#bbdefb" stroke="black" d="M217.5,-540C217.5,-540 166.5,-540 166.5,-540 160.5,-540 154.5,-534 154.5,-528 154.5,-528 154.5,-516 154.5,-516 154.5,-510 160.5,-504 166.5,-504 166.5,-504 217.5,-504 217.5,-504 223.5,-504 229.5,-510 229.5,-516 229.5,-516 229.5,-528 229.5,-528 229.5,-534 223.5,-540 217.5,-540"/>
<text text-anchor="middle" x="192" y="-518.3" font-family="Arial" font-size="14.00">programa</text>
</g>
<!-- 1 -->
<g id="node2" class="node">
<title>1</title>
<path fill="#bbdefb" stroke="black" d="M181,-468C181,-468 105,-468 105,-468 99,-468 93,-462 93,-456 93,-456 93,-444 93,-444 93,-438 99,-432 105,-432 105,-432 181,-432 181,-432 187,-432 193,-438 193,-444 193,-444 193,-456 193,-456 193,-462 187,-468 181,-468"/>
<text text-anchor="middle" x="143" y="-446.3" font-family="Arial" font-size="14.00">declaraciones</text>
</g>
<!-- 0&#45;&gt;1 -->
<g id="edge14" class="edge">
<title>0&#45;&gt;1</title>
<path fill="none" stroke="black" d="M179.89,-503.7C172.29,-492.85 162.54,-478.92 154.97,-468.1"/>
</g>
<!-- 15 -->
<g id="node16" class="node">
<title>15</title>
<path fill="#e8f5e9" stroke="black" d="M261,-468C261,-468 223,-468 223,-468 217,-468 211,-462 211,-456 211,-456 211,-444 211,-444 211,-438 217,-432 223,-432 223,-432 261,-432 261,-432 267,-432 273,-438 273,-444 273,-444 273,-456 273,-456 273,-462 267,-468 261,-468"/>
<text text-anchor="middle" x="242" y="-446.3" font-family="Arial" font-size="14.00">&lt;EOF&gt;</text>
</g>
<!-- 0&#45;&gt;15 -->
<g id="edge15" class="edge">
<title>0&#45;&gt;15</title>
<path fill="none" stroke="black" d="M204.36,-503.7C212.11,-492.85 222.06,-478.92 229.78,-468.1"/>
</g>
<!-- 2 -->
<g id="node3" class="node">
<title>2</title>
<path fill="#bbdefb" stroke="black" d="M158,-396C158,-396 128,-396 128,-396 122,-396 116,-390 116,-384 116,-384 116,-372 116,-372 116,-366 122,-360 128,-360 128,-360 158,-360 158,-360 164,-360 170,-366 170,-372 170,-372 170,-384 170,-384 170,-390 164,-396 158,-396"/>
<text text-anchor="middle" x="143" y="-374.3" font-family="Arial" font-size="14.00">stmt</text>
</g>
<!-- 1&#45;&gt;2 -->
<g id="edge13" class="edge">
<title>1&#45;&gt;2</title>
<path fill="none" stroke="black" d="M143,-431.7C143,-420.85 143,-406.92 143,-396.1"/>
</g>
<!-- 3 -->
<g id="node4" class="node">
<title>3</title>
<path fill="#e8f5e9" stroke="black" d="M42,-324C42,-324 12,-324 12,-324 6,-324 0,-318 0,-312 0,-312 0,-300 0,-300 0,-294 6,-288 12,-288 12,-288 42,-288 42,-288 48,-288 54,-294 54,-300 54,-300 54,-312 54,-312 54,-318 48,-324 42,-324"/>
<text text-anchor="middle" x="27" y="-302.3" font-family="Arial" font-size="14.00">println</text>
</g>
<!-- 2&#45;&gt;3 -->
<g id="edge1" class="edge">
<title>2&#45;&gt;3</title>
<path fill="none" stroke="black" d="M115.8,-360.59C97.19,-349.35 72.61,-334.52 54.03,-323.31"/>
</g>
<!-- 4 -->
<g id="node5" class="node">
<title>4</title>
<path fill="#e8f5e9" stroke="black" d="M114,-324C114,-324 84,-324 84,-324 78,-324 72,-318 72,-312 72,-312 72,-300 72,-300 72,-294 78,-288 84,-288 84,-288 114,-288 114,-288 120,-288 126,-294 126,-300 126,-300 126,-312 126,-312 126,-318 120,-324 114,-324"/>
<text text-anchor="middle" x="99" y="-302.3" font-family="Arial" font-size="14.00">(</text>
</g>
<!-- 2&#45;&gt;4 -->
<g id="edge2" class="edge">
<title>2&#45;&gt;4</title>
<path fill="none" stroke="black" d="M132.12,-359.7C125.3,-348.85 116.55,-334.92 109.75,-324.1"/>
</g>
<!-- 5 -->
<g id="node6" class="node">
<title>5</title>
<path fill="#bbdefb" stroke="black" d="M218,-324C218,-324 156,-324 156,-324 150,-324 144,-318 144,-312 144,-312 144,-300 144,-300 144,-294 150,-288 156,-288 156,-288 218,-288 218,-288 224,-288 230,-294 230,-300 230,-300 230,-312 230,-312 230,-318 224,-324 218,-324"/>
<text text-anchor="middle" x="187" y="-302.3" font-family="Arial" font-size="14.00">parametros</text>
</g>
<!-- 2&#45;&gt;5 -->
<g id="edge11" class="edge">
<title>2&#45;&gt;5</title>
<path fill="none" stroke="black" d="M153.88,-359.7C160.7,-348.85 169.45,-334.92 176.25,-324.1"/>
</g>
<!-- 14 -->
<g id="node15" class="node">
<title>14</title>
<path fill="#e8f5e9" stroke="black" d="M290,-324C290,-324 260,-324 260,-324 254,-324 248,-318 248,-312 248,-312 248,-300 248,-300 248,-294 254,-288 260,-288 260,-288 290,-288 290,-288 296,-288 302,-294 302,-300 302,-300 302,-312 302,-312 302,-318 296,-324 290,-324"/>
<text text-anchor="middle" x="275" y="-302.3" font-family="Arial" font-size="14.00">)</text>
</g>
<!-- 2&#45;&gt;14 -->
<g id="edge12" class="edge">
<title>2&#45;&gt;14</title>
<path fill="none" stroke="black" d="M170.03,-362.67C192.66,-350.67 224.81,-333.62 247.55,-321.56"/>
</g>
<!-- 6 -->
<g id="node7" class="node">
<title>6</title>
<path fill="#bbdefb" stroke="black" d="M212.5,-252C212.5,-252 161.5,-252 161.5,-252 155.5,-252 149.5,-246 149.5,-240 149.5,-240 149.5,-228 149.5,-228 149.5,-222 155.5,-216 161.5,-216 161.5,-216 212.5,-216 212.5,-216 218.5,-216 224.5,-222 224.5,-228 224.5,-228 224.5,-240 224.5,-240 224.5,-246 218.5,-252 212.5,-252"/>
<text text-anchor="middle" x="187" y="-230.3" font-family="Arial" font-size="14.00">expresion</text>
</g>
<!-- 5&#45;&gt;6 -->
<g id="edge10" class="edge">
<title>5&#45;&gt;6</title>
<path fill="none" stroke="black" d="M187,-287.7C187,-276.85 187,-262.92 187,-252.1"/>
</g>
<!-- 7 -->
<g id="node8" class="node">
<title>7</title>
<path fill="#bbdefb" stroke="black" d="M129.5,-180C129.5,-180 78.5,-180 78.5,-180 72.5,-180 66.5,-174 66.5,-168 66.5,-168 66.5,-156 66.5,-156 66.5,-150 72.5,-144 78.5,-144 78.5,-144 129.5,-144 129.5,-144 135.5,-144 141.5,-150 141.5,-156 141.5,-156 141.5,-168 141.5,-168 141.5,-174 135.5,-180 129.5,-180"/>
<text text-anchor="middle" x="104" y="-158.3" font-family="Arial" font-size="14.00">expresion</text>
</g>
<!-- 6&#45;&gt;7 -->
<g id="edge5" class="edge">
<title>6&#45;&gt;7</title>
<path fill="none" stroke="black" d="M166.48,-215.7C153.62,-204.85 137.1,-190.92 124.28,-180.1"/>
</g>
<!-- 10 -->
<g id="node11" class="node">
<title>10</title>
<path fill="#e8f5e9" stroke="black" d="M202,-180C202,-180 172,-180 172,-180 166,-180 160,-174 160,-168 160,-168 160,-156 160,-156 160,-150 166,-144 172,-144 172,-144 202,-144 202,-144 208,-144 214,-150 214,-156 214,-156 214,-168 214,-168 214,-174 208,-180 202,-180"/>
<text text-anchor="middle" x="187" y="-158.3" font-family="Arial" font-size="14.00">+</text>
</g>
<!-- 6&#45;&gt;10 -->
<g id="edge6" class="edge">
<title>6&#45;&gt;10</title>
<path fill="none" stroke="black" d="M187,-215.7C187,-204.85 187,-190.92 187,-180.1"/>
</g>
<!-- 11 -->
<g id="node12" class="node">
<title>11</title>
<path fill="#bbdefb" stroke="black" d="M295.5,-180C295.5,-180 244.5,-180 244.5,-180 238.5,-180 232.5,-174 232.5,-168 232.5,-168 232.5,-156 232.5,-156 232.5,-150 238.5,-144 244.5,-144 244.5,-144 295.5,-144 295.5,-144 301.5,-144 307.5,-150 307.5,-156 307.5,-156 307.5,-168 307.5,-168 307.5,-174 301.5,-180 295.5,-180"/>
<text text-anchor="middle" x="270" y="-158.3" font-family="Arial" font-size="14.00">expresion</text>
</g>
<!-- 6&#45;&gt;11 -->
<g id="edge9" class="edge">
<title>6&#45;&gt;11</title>
<path fill="none" stroke="black" d="M207.52,-215.7C220.38,-204.85 236.9,-190.92 249.72,-180.1"/>
</g>
<!-- 8 -->
<g id="node9" class="node">
<title>8</title>
<path fill="#bbdefb" stroke="black" d="M119,-108C119,-108 89,-108 89,-108 83,-108 77,-102 77,-96 77,-96 77,-84 77,-84 77,-78 83,-72 89,-72 89,-72 119,-72 119,-72 125,-72 131,-78 131,-84 131,-84 131,-96 131,-96 131,-102 125,-108 119,-108"/>
<text text-anchor="middle" x="104" y="-86.3" font-family="Arial" font-size="14.00">valor</text>
</g>
<!-- 7&#45;&gt;8 -->
<g id="edge4" class="edge">
<title>7&#45;&gt;8</title>
<path fill="none" stroke="black" d="M104,-143.7C104,-132.85 104,-118.92 104,-108.1"/>
</g>
<!-- 9 -->
<g id="node10" class="node">
<title>9</title>
<path fill="#e8f5e9" stroke="black" d="M119,-36C119,-36 89,-36 89,-36 83,-36 77,-30 77,-24 77,-24 77,-12 77,-12 77,-6 83,0 89,0 89,0 119,0 119,0 125,0 131,-6 131,-12 131,-12 131,-24 131,-24 131,-30 125,-36 119,-36"/>
<text text-anchor="middle" x="104" y="-14.3" font-family="Arial" font-size="14.00">1</text>
</g>
<!-- 8&#45;&gt;9 -->
<g id="edge3" class="edge">
<title>8&#45;&gt;9</title>
<path fill="none" stroke="black" d="M104,-71.7C104,-60.85 104,-46.92 104,-36.1"/>
</g>
<!-- 12 -->
<g id="node13" class="node">
<title>12</title>
<path fill="#bbdefb" stroke="black" d="M285,-108C285,-108 255,-108 255,-108 249,-108 243,-102 243,-96 243,-96 243,-84 243,-84 243,-78 249,-72 255,-72 255,-72 285,-72 285,-72 291,-72 297,-78 297,-84 297,-84 297,-96 297,-96 297,-102 291,-108 285,-108"/>
<text text-anchor="middle" x="270" y="-86.3" font-family="Arial" font-size="14.00">valor</text>
</g>
<!-- 11&#45;&gt;12 -->
<g id="edge8" class="edge">
<title>11&#45;&gt;12</title>
<path fill="none" stroke="black" d="M270,-143.7C270,-132.85 270,-118.92 270,-108.1"/>
</g>
<!-- 13 -->
<g id="node14" class="node">
<title>13</title>
<path fill="#e8f5e9" stroke="black" d="M285,-36C285,-36 255,-36 255,-36 249,-36 243,-30 243,-24 243,-24 243,-12 243,-12 243,-6 249,0 255,0 255,0 285,0 285,0 291,0 297,-6 297,-12 297,-12 297,-24 297,-24 297,-30 291,-36 285,-36"/>
<text text-anchor="middle" x="270" y="-14.3" font-family="Arial" font-size="14.00">1</text>
</g>
<!-- 12&#45;&gt;13 -->
<g id="edge7" class="edge">
<title>12&#45;&gt;13</title>
<path fill="none" stroke="black" d="M270,-71.7C270,-60.85 270,-46.92 270,-36.1"/>
</g>
</g>
</svg>
