<?xml version="1.0" encoding="UTF-8" standalone="no"?>
<svg xmlns="http://www.w3.org/2000/svg" width="2000" height="1200" viewBox="0 0 2000 1200">
<defs>
<style>
.node-rect { fill: #4a4a4a; stroke: #2a2a2a; stroke-width: 1.5; rx: 5; filter: url(#shadow); }
.terminal-rect { fill: #2ecc71; stroke: #27ae60; stroke-width: 1.5; rx: 5; filter: url(#shadow); }

.node-text {
	font-family: 'Arial', sans-serif;
	font-size: 13px;
	fill: #ffffff;
	text-anchor: middle;
	dominant-baseline: central;
	paint-order: stroke;
	stroke: #000000;
	stroke-width: 0.5px;
}

.edge-line { stroke: #34495e; stroke-width: 1.5; }
.bg { fill: #f0f0f0; stroke: #cccccc; stroke-width: 2; }
</style>
<filter id="shadow" x="-50%" y="-50%" width="200%" height="200%">
  <feGaussianBlur in="SourceAlpha" stdDeviation="2"/>
  <feOffset dx="1" dy="1" result="offsetblur"/>
  <feComponentTransfer>
    <feFuncA type="linear" slope="0.5"/>
  </feComponentTransfer>
  <feMerge>
    <feMergeNode/>
    <feMergeNode in="SourceGraphic"/>
  </feMerge>
</filter>
</defs>
<!-- Fondo visible para debugging -->
<rect x="0" y="0" width="2000" height="1200" class="bg"/>
<!-- Marcador visual de prueba -->
<rect x="10" y="10" width="100" height="30" fill="red" stroke="black"/>
<text x="60" y="25" font-family="Arial" font-size="12" fill="white" text-anchor="middle">TEST</text>
<rect x="962" y="86" width="76" height="28" class="node-rect"/>
<text x="1000" y="100" class="node-text">programa</text>
<line x1="1000" y1="114" x2="820" y2="186" class="edge-line"/>
<rect x="765" y="186" width="111" height="28" class="node-rect"/>
<text x="820" y="200" class="node-text">declaraciones</text>
<line x1="820" y1="214" x2="820" y2="306" class="edge-line"/>
<rect x="789" y="306" width="62" height="28" class="node-rect"/>
<text x="820" y="320" class="node-text">varDcl</text>
<line x1="820" y1="334" x2="685" y2="446" class="edge-line"/>
<rect x="655" y="446" width="60" height="28" class="terminal-rect"/>
<text x="685" y="460" class="node-text">mut</text>
<line x1="820" y1="334" x2="775" y2="446" class="edge-line"/>
<rect x="745" y="446" width="60" height="28" class="terminal-rect"/>
<text x="775" y="460" class="node-text">suma</text>
<line x1="820" y1="334" x2="865" y2="446" class="edge-line"/>
<rect x="835" y="446" width="60" height="28" class="terminal-rect"/>
<text x="865" y="460" class="node-text">:=</text>
<line x1="820" y1="334" x2="955" y2="446" class="edge-line"/>
<rect x="914" y="446" width="83" height="28" class="node-rect"/>
<text x="955" y="460" class="node-text">expresion</text>
<line x1="955" y1="474" x2="955" y2="606" class="edge-line"/>
<rect x="925" y="606" width="60" height="28" class="node-rect"/>
<text x="955" y="620" class="node-text">valor</text>
<line x1="955" y1="634" x2="955" y2="786" class="edge-line"/>
<rect x="925" y="786" width="60" height="28" class="terminal-rect"/>
<text x="955" y="800" class="node-text">10</text>
<line x1="1000" y1="114" x2="940" y2="186" class="edge-line"/>
<rect x="885" y="186" width="111" height="28" class="node-rect"/>
<text x="940" y="200" class="node-text">declaraciones</text>
<line x1="940" y1="214" x2="940" y2="306" class="edge-line"/>
<rect x="909" y="306" width="62" height="28" class="node-rect"/>
<text x="940" y="320" class="node-text">varDcl</text>
<line x1="940" y1="334" x2="805" y2="446" class="edge-line"/>
<rect x="775" y="446" width="60" height="28" class="terminal-rect"/>
<text x="805" y="460" class="node-text">mut</text>
<line x1="940" y1="334" x2="895" y2="446" class="edge-line"/>
<rect x="847" y="446" width="97" height="28" class="terminal-rect"/>
<text x="895" y="460" class="node-text">puntosbreak</text>
<line x1="940" y1="334" x2="985" y2="446" class="edge-line"/>
<rect x="955" y="446" width="60" height="28" class="terminal-rect"/>
<text x="985" y="460" class="node-text">:=</text>
<line x1="940" y1="334" x2="1075" y2="446" class="edge-line"/>
<rect x="1034" y="446" width="83" height="28" class="node-rect"/>
<text x="1075" y="460" class="node-text">expresion</text>
<line x1="1075" y1="474" x2="1075" y2="606" class="edge-line"/>
<rect x="1045" y="606" width="60" height="28" class="node-rect"/>
<text x="1075" y="620" class="node-text">valor</text>
<line x1="1075" y1="634" x2="1075" y2="786" class="edge-line"/>
<rect x="1045" y="786" width="60" height="28" class="terminal-rect"/>
<text x="1075" y="800" class="node-text">0</text>
<line x1="1000" y1="114" x2="1060" y2="186" class="edge-line"/>
<rect x="1005" y="186" width="111" height="28" class="node-rect"/>
<text x="1060" y="200" class="node-text">declaraciones</text>
<line x1="1060" y1="214" x2="1060" y2="306" class="edge-line"/>
<rect x="1030" y="306" width="60" height="28" class="node-rect"/>
<text x="1060" y="320" class="node-text">stmt</text>
<line x1="1060" y1="334" x2="1060" y2="446" class="edge-line"/>
<rect x="987" y="446" width="146" height="28" class="node-rect"/>
<text x="1060" y="460" class="node-text">sentencias_control</text>
<line x1="1060" y1="474" x2="1060" y2="606" class="edge-line"/>
<rect x="1030" y="606" width="60" height="28" class="node-rect"/>
<text x="1060" y="620" class="node-text">ifDcl</text>
<line x1="1060" y1="634" x2="940" y2="786" class="edge-line"/>
<rect x="910" y="786" width="60" height="28" class="terminal-rect"/>
<text x="940" y="800" class="node-text">if</text>
<line x1="1060" y1="634" x2="1020" y2="786" class="edge-line"/>
<rect x="979" y="786" width="83" height="28" class="node-rect"/>
<text x="1020" y="800" class="node-text">expresion</text>
<line x1="1020" y1="814" x2="1020" y2="986" class="edge-line"/>
<rect x="990" y="986" width="60" height="28" class="node-rect"/>
<text x="1020" y="1000" class="node-text">valor</text>
<line x1="1020" y1="1014" x2="1020" y2="1206" class="edge-line"/>
<rect x="990" y="1206" width="60" height="28" class="terminal-rect"/>
<text x="1020" y="1220" class="node-text">true</text>
<line x1="1060" y1="634" x2="1100" y2="786" class="edge-line"/>
<rect x="1069" y="786" width="62" height="28" class="node-rect"/>
<text x="1100" y="800" class="node-text">bloque</text>
<line x1="1100" y1="814" x2="980" y2="986" class="edge-line"/>
<line x1="1100" y1="814" x2="1060" y2="986" class="edge-line"/>
<rect x="1005" y="986" width="111" height="28" class="node-rect"/>
<text x="1060" y="1000" class="node-text">declaraciones</text>
<line x1="1060" y1="1014" x2="1060" y2="1206" class="edge-line"/>
<rect x="1030" y="1206" width="60" height="28" class="node-rect"/>
<text x="1060" y="1220" class="node-text">stmt</text>
<line x1="1060" y1="1234" x2="1060" y2="1446" class="edge-line"/>
<rect x="1019" y="1446" width="83" height="28" class="node-rect"/>
<text x="1060" y="1460" class="node-text">expresion</text>
<line x1="1060" y1="1474" x2="980" y2="1706" class="edge-line"/>
<rect x="939" y="1706" width="83" height="28" class="node-rect"/>
<text x="980" y="1720" class="node-text">expresion</text>
<line x1="980" y1="1734" x2="900" y2="1986" class="edge-line"/>
<rect x="852" y="1986" width="97" height="28" class="terminal-rect"/>
<text x="900" y="2000" class="node-text">puntosBreak</text>
<line x1="980" y1="1734" x2="980" y2="1986" class="edge-line"/>
<rect x="950" y="1986" width="60" height="28" class="terminal-rect"/>
<text x="980" y="2000" class="node-text">=</text>
<line x1="980" y1="1734" x2="1060" y2="1986" class="edge-line"/>
<rect x="1019" y="1986" width="83" height="28" class="node-rect"/>
<text x="1060" y="2000" class="node-text">expresion</text>
<line x1="1060" y1="2014" x2="1060" y2="2286" class="edge-line"/>
<rect x="1012" y="2286" width="97" height="28" class="terminal-rect"/>
<text x="1060" y="2300" class="node-text">puntosBreak</text>
<line x1="1060" y1="1474" x2="1060" y2="1706" class="edge-line"/>
<rect x="1030" y="1706" width="60" height="28" class="terminal-rect"/>
<text x="1060" y="1720" class="node-text">+</text>
<line x1="1060" y1="1474" x2="1140" y2="1706" class="edge-line"/>
<rect x="1099" y="1706" width="83" height="28" class="node-rect"/>
<text x="1140" y="1720" class="node-text">expresion</text>
<line x1="1140" y1="1734" x2="1140" y2="1986" class="edge-line"/>
<rect x="1110" y="1986" width="60" height="28" class="node-rect"/>
<text x="1140" y="2000" class="node-text">valor</text>
<line x1="1140" y1="2014" x2="1140" y2="2286" class="edge-line"/>
<rect x="1110" y="2286" width="60" height="28" class="terminal-rect"/>
<text x="1140" y="2300" class="node-text">2</text>
<line x1="1100" y1="814" x2="1140" y2="986" class="edge-line"/>
<rect x="1085" y="986" width="111" height="28" class="node-rect"/>
<text x="1140" y="1000" class="node-text">declaraciones</text>
<line x1="1140" y1="1014" x2="1140" y2="1206" class="edge-line"/>
<rect x="1110" y="1206" width="60" height="28" class="node-rect"/>
<text x="1140" y="1220" class="node-text">stmt</text>
<line x1="1140" y1="1234" x2="1020" y2="1446" class="edge-line"/>
<rect x="986" y="1446" width="69" height="28" class="terminal-rect"/>
<text x="1020" y="1460" class="node-text">println</text>
<line x1="1140" y1="1234" x2="1100" y2="1446" class="edge-line"/>
<line x1="1140" y1="1234" x2="1180" y2="1446" class="edge-line"/>
<rect x="1135" y="1446" width="90" height="28" class="node-rect"/>
<text x="1180" y="1460" class="node-text">parametros</text>
<line x1="1180" y1="1474" x2="1180" y2="1706" class="edge-line"/>
<rect x="1139" y="1706" width="83" height="28" class="node-rect"/>
<text x="1180" y="1720" class="node-text">expresion</text>
<line x1="1180" y1="1734" x2="1180" y2="1986" class="edge-line"/>
<rect x="1150" y="1986" width="60" height="28" class="node-rect"/>
<text x="1180" y="2000" class="node-text">valor</text>
<line x1="1180" y1="2014" x2="1180" y2="2286" class="edge-line"/>
<rect x="1080" y="2286" width="200" height="28" class="terminal-rect"/>
<text x="1180" y="2300" class="node-text">&quot;OK Break en for clásico: correcto&quot;</text>
<line x1="1140" y1="1234" x2="1260" y2="1446" class="edge-line"/>
<line x1="1100" y1="814" x2="1220" y2="986" class="edge-line"/>
<line x1="1060" y1="634" x2="1180" y2="786" class="edge-line"/>
<rect x="1146" y="786" width="69" height="28" class="node-rect"/>
<text x="1180" y="800" class="node-text">elseDcl</text>
<line x1="1180" y1="814" x2="1140" y2="986" class="edge-line"/>
<rect x="1110" y="986" width="60" height="28" class="terminal-rect"/>
<text x="1140" y="1000" class="node-text">else</text>
<line x1="1180" y1="814" x2="1220" y2="986" class="edge-line"/>
<rect x="1189" y="986" width="62" height="28" class="node-rect"/>
<text x="1220" y="1000" class="node-text">bloque</text>
<line x1="1220" y1="1014" x2="1140" y2="1206" class="edge-line"/>
<line x1="1220" y1="1014" x2="1220" y2="1206" class="edge-line"/>
<rect x="1165" y="1206" width="111" height="28" class="node-rect"/>
<text x="1220" y="1220" class="node-text">declaraciones</text>
<line x1="1220" y1="1234" x2="1220" y2="1446" class="edge-line"/>
<rect x="1190" y="1446" width="60" height="28" class="node-rect"/>
<text x="1220" y="1460" class="node-text">stmt</text>
<line x1="1220" y1="1474" x2="1100" y2="1706" class="edge-line"/>
<rect x="1066" y="1706" width="69" height="28" class="terminal-rect"/>
<text x="1100" y="1720" class="node-text">println</text>
<line x1="1220" y1="1474" x2="1180" y2="1706" class="edge-line"/>
<line x1="1220" y1="1474" x2="1260" y2="1706" class="edge-line"/>
<rect x="1215" y="1706" width="90" height="28" class="node-rect"/>
<text x="1260" y="1720" class="node-text">parametros</text>
<line x1="1260" y1="1734" x2="1260" y2="1986" class="edge-line"/>
<rect x="1219" y="1986" width="83" height="28" class="node-rect"/>
<text x="1260" y="2000" class="node-text">expresion</text>
<line x1="1260" y1="2014" x2="1260" y2="2286" class="edge-line"/>
<rect x="1230" y="2286" width="60" height="28" class="node-rect"/>
<text x="1260" y="2300" class="node-text">valor</text>
<line x1="1260" y1="2314" x2="1260" y2="2606" class="edge-line"/>
<rect x="1160" y="2606" width="200" height="28" class="terminal-rect"/>
<text x="1260" y="2620" class="node-text">&quot;X Break en for clásico: incorrecto&quot;</text>
<line x1="1220" y1="1474" x2="1340" y2="1706" class="edge-line"/>
<line x1="1220" y1="1014" x2="1300" y2="1206" class="edge-line"/>
<line x1="1000" y1="114" x2="1180" y2="186" class="edge-line"/>
<rect x="1132" y="186" width="97" height="28" class="terminal-rect"/>
<text x="1180" y="200" class="node-text">&lt;EOF&gt;</text>
</svg>